<svg xmlns="http://www.w3.org/2000/svg" class="main-svg" style="background: rgb(255, 255, 255);" width="800" height="400" xmlns:xlink="http://www.w3.org/1999/xlink"><defs id="defs-03476f"><g class="clips"><clipPath class="plotclip" id="clip03476fxyplot"><rect width="589" height="220" /></clipPath><clipPath class="axesclip" id="clip03476fx"><rect x="80" y="0" width="589" height="400" /></clipPath><clipPath class="axesclip" id="clip03476fy"><rect x="0" y="100" width="800" height="220" /></clipPath><clipPath class="axesclip" id="clip03476fxy"><rect x="80" y="100" width="589" height="220" /></clipPath></g><g class="gradients" /></defs><g class="bglayer" /><g class="draglayer cursor-crosshair"><g class="xy"><rect class="nsewdrag drag" style="fill: transparent; pointer-events: all; stroke-width: 0;" x="80" y="100" width="589" height="220" data-subplot="xy" /><rect class="nwdrag drag cursor-nw-resize" style="fill: transparent; pointer-events: all; stroke-width: 0;" x="60" y="80" width="20" height="20" data-subplot="xy" /><rect class="nedrag drag cursor-ne-resize" style="fill: transparent; pointer-events: all; stroke-width: 0;" x="669" y="80" width="20" height="20" data-subplot="xy" /><rect class="swdrag drag cursor-sw-resize" style="fill: transparent; pointer-events: all; stroke-width: 0;" x="60" y="320" width="20" height="20" data-subplot="xy" /><rect class="sedrag drag cursor-se-resize" style="fill: transparent; pointer-events: all; stroke-width: 0;" x="669" y="320" width="20" height="20" data-subplot="xy" /><rect class="ewdrag drag cursor-ew-resize" style="fill: transparent; pointer-events: all; stroke-width: 0;" x="138.9" y="320.5" width="471.2" height="20" data-subplot="xy" /><rect class="wdrag drag cursor-w-resize" style="fill: transparent; pointer-events: all; stroke-width: 0;" x="80" y="320.5" width="58.9" height="20" data-subplot="xy" /><rect class="edrag drag cursor-e-resize" style="fill: transparent; pointer-events: all; stroke-width: 0;" x="610.1" y="320.5" width="58.9" height="20" data-subplot="xy" /><rect class="nsdrag drag cursor-ns-resize" style="fill: transparent; pointer-events: all; stroke-width: 0;" x="59.5" y="122" width="20" height="176" data-subplot="xy" /><rect class="sdrag drag cursor-s-resize" style="fill: transparent; pointer-events: all; stroke-width: 0;" x="59.5" y="298" width="20" height="22" data-subplot="xy" /><rect class="ndrag drag cursor-n-resize" style="fill: transparent; pointer-events: all; stroke-width: 0;" x="59.5" y="100" width="20" height="22" data-subplot="xy" /></g></g><g class="layer-below"><g class="imagelayer" /><g class="shapelayer" /></g><g class="cartesianlayer"><g class="subplot xy"><g class="layer-subplot"><g class="shapelayer" /><g class="imagelayer" /></g><g class="gridlayer"><g class="x" /><g class="y"><path class="ygrid crisp" style="stroke: rgb(238, 238, 238); stroke-opacity: 1; stroke-width: 1px;" transform="translate(0 249.55)" d="M 80 0 h 589" /><path class="ygrid crisp" style="stroke: rgb(238, 238, 238); stroke-opacity: 1; stroke-width: 1px;" transform="translate(0 179.09)" d="M 80 0 h 589" /><path class="ygrid crisp" style="stroke: rgb(238, 238, 238); stroke-opacity: 1; stroke-width: 1px;" transform="translate(0 108.64)" d="M 80 0 h 589" /></g></g><g class="zerolinelayer"><path class="yzl zl crisp" style="stroke: rgb(68, 68, 68); stroke-opacity: 1; stroke-width: 1px;" transform="translate(0 320)" d="M 80 0 h 589" /></g><path class="xlines-below" /><path class="ylines-below" /><g class="overlines-below" /><g class="xaxislayer-below" /><g class="yaxislayer-below" /><g class="overaxes-below" /><g class="plot" clip-path="url(&quot;#clip03476fxyplot&quot;)" transform="translate(80 100)"><g class="barlayer mlayer"><g class="trace bars" style="opacity: 1;" shape-rendering="crispEdges"><g class="points"><g class="point"><path style="opacity: 1; fill: rgb(200, 50, 50); fill-opacity: 1; stroke-width: 0px;" d="M 0 220 V 219 H 6 V 220 Z" /></g><g class="point"><path style="opacity: 1; fill: rgb(200, 50, 50); fill-opacity: 1; stroke-width: 0px;" d="M 6 220 V 219 H 13 V 220 Z" /></g><g class="point"><path style="opacity: 1; fill: rgb(200, 50, 50); fill-opacity: 1; stroke-width: 0px;" d="M 13 220 V 219 H 19 V 220 Z" /></g><g class="point"><path style="opacity: 1; fill: rgb(200, 50, 50); fill-opacity: 1; stroke-width: 0px;" d="M 19 220 V 219 H 26 V 220 Z" /></g><g class="point"><path style="opacity: 1; fill: rgb(200, 50, 50); fill-opacity: 1; stroke-width: 0px;" d="M 26 220 V 219 H 32 V 220 Z" /></g><g class="point"><path style="opacity: 1; fill: rgb(200, 50, 50); fill-opacity: 1; stroke-width: 0px;" d="M 32 220 V 219 H 38 V 220 Z" /></g><g class="point"><path style="opacity: 1; fill: rgb(200, 50, 50); fill-opacity: 1; stroke-width: 0px;" d="M 38 220 V 218 H 45 V 220 Z" /></g><g class="point"><path style="opacity: 1; fill: rgb(200, 50, 50); fill-opacity: 1; stroke-width: 0px;" d="M 45 220 V 219 H 51 V 220 Z" /></g><g class="point"><path style="opacity: 1; fill: rgb(200, 50, 50); fill-opacity: 1; stroke-width: 0px;" d="M 51 220 V 219 H 58 V 220 Z" /></g><g class="point"><path style="opacity: 1; fill: rgb(200, 50, 50); fill-opacity: 1; stroke-width: 0px;" d="M 58 220 V 218 H 64 V 220 Z" /></g><g class="point"><path style="opacity: 1; fill: rgb(200, 50, 50); fill-opacity: 1; stroke-width: 0px;" d="M 64 220 V 219 H 70 V 220 Z" /></g><g class="point"><path style="opacity: 1; fill: rgb(200, 50, 50); fill-opacity: 1; stroke-width: 0px;" d="M 70 220 V 219 H 77 V 220 Z" /></g><g class="point"><path style="opacity: 1; fill: rgb(200, 50, 50); fill-opacity: 1; stroke-width: 0px;" d="M 77 220 V 219 H 83 V 220 Z" /></g><g class="point"><path style="opacity: 1; fill: rgb(200, 50, 50); fill-opacity: 1; stroke-width: 0px;" d="M 83 220 V 218 H 90 V 220 Z" /></g><g class="point"><path style="opacity: 1; fill: rgb(200, 50, 50); fill-opacity: 1; stroke-width: 0px;" d="M 90 220 V 216 H 96 V 220 Z" /></g><g class="point"><path style="opacity: 1; fill: rgb(200, 50, 50); fill-opacity: 1; stroke-width: 0px;" d="M 96 220 V 219 H 102 V 220 Z" /></g><g class="point"><path style="opacity: 1; fill: rgb(200, 50, 50); fill-opacity: 1; stroke-width: 0px;" d="M 102 220 V 219 H 109 V 220 Z" /></g><g class="point"><path style="opacity: 1; fill: rgb(200, 50, 50); fill-opacity: 1; stroke-width: 0px;" d="M 109 220 V 219 H 115 V 220 Z" /></g><g class="point"><path style="opacity: 1; fill: rgb(200, 50, 50); fill-opacity: 1; stroke-width: 0px;" d="M 115 220 V 219 H 122 V 220 Z" /></g><g class="point"><path style="opacity: 1; fill: rgb(200, 50, 50); fill-opacity: 1; stroke-width: 0px;" d="M 122 220 V 215 H 128 V 220 Z" /></g><g class="point"><path style="opacity: 1; fill: rgb(200, 50, 50); fill-opacity: 1; stroke-width: 0px;" d="M 128 220 V 216 H 134 V 220 Z" /></g><g class="point"><path style="opacity: 1; fill: rgb(200, 50, 50); fill-opacity: 1; stroke-width: 0px;" d="M 134 220 V 218 H 141 V 220 Z" /></g><g class="point"><path style="opacity: 1; fill: rgb(200, 50, 50); fill-opacity: 1; stroke-width: 0px;" d="M 141 220 V 218 H 147 V 220 Z" /></g><g class="point"><path style="opacity: 1; fill: rgb(200, 50, 50); fill-opacity: 1; stroke-width: 0px;" d="M 147 220 V 218 H 154 V 220 Z" /></g><g class="point"><path style="opacity: 1; fill: rgb(200, 50, 50); fill-opacity: 1; stroke-width: 0px;" d="M 154 220 V 216 H 160 V 220 Z" /></g><g class="point"><path style="opacity: 1; fill: rgb(200, 50, 50); fill-opacity: 1; stroke-width: 0px;" d="M 160 220 V 218 H 166 V 220 Z" /></g><g class="point"><path style="opacity: 1; fill: rgb(200, 50, 50); fill-opacity: 1; stroke-width: 0px;" d="M 166 220 V 218 H 173 V 220 Z" /></g><g class="point"><path style="opacity: 1; fill: rgb(200, 50, 50); fill-opacity: 1; stroke-width: 0px;" d="M 173 220 V 217 H 179 V 220 Z" /></g><g class="point"><path style="opacity: 1; fill: rgb(200, 50, 50); fill-opacity: 1; stroke-width: 0px;" d="M 179 220 V 216 H 186 V 220 Z" /></g><g class="point"><path style="opacity: 1; fill: rgb(200, 50, 50); fill-opacity: 1; stroke-width: 0px;" d="M 186 220 V 86 H 192 V 220 Z" /></g><g class="point"><path style="opacity: 1; fill: rgb(200, 50, 50); fill-opacity: 1; stroke-width: 0px;" d="M 192 220 V 213 H 198 V 220 Z" /></g><g class="point"><path style="opacity: 1; fill: rgb(200, 50, 50); fill-opacity: 1; stroke-width: 0px;" d="M 198 220 V 216 H 205 V 220 Z" /></g><g class="point"><path style="opacity: 1; fill: rgb(200, 50, 50); fill-opacity: 1; stroke-width: 0px;" d="M 205 220 V 217 H 211 V 220 Z" /></g><g class="point"><path style="opacity: 1; fill: rgb(200, 50, 50); fill-opacity: 1; stroke-width: 0px;" d="M 211 220 V 218 H 218 V 220 Z" /></g><g class="point"><path style="opacity: 1; fill: rgb(200, 50, 50); fill-opacity: 1; stroke-width: 0px;" d="M 218 220 V 213 H 224 V 220 Z" /></g><g class="point"><path style="opacity: 1; fill: rgb(200, 50, 50); fill-opacity: 1; stroke-width: 0px;" d="M 224 220 V 218 H 230 V 220 Z" /></g><g class="point"><path style="opacity: 1; fill: rgb(200, 50, 50); fill-opacity: 1; stroke-width: 0px;" d="M 230 220 V 218 H 237 V 220 Z" /></g><g class="point"><path style="opacity: 1; fill: rgb(200, 50, 50); fill-opacity: 1; stroke-width: 0px;" d="M 237 220 V 218 H 243 V 220 Z" /></g><g class="point"><path style="opacity: 1; fill: rgb(200, 50, 50); fill-opacity: 1; stroke-width: 0px;" d="M 243 220 V 218 H 250 V 220 Z" /></g><g class="point"><path style="opacity: 1; fill: rgb(200, 50, 50); fill-opacity: 1; stroke-width: 0px;" d="M 250 220 V 213 H 256 V 220 Z" /></g><g class="point"><path style="opacity: 1; fill: rgb(200, 50, 50); fill-opacity: 1; stroke-width: 0px;" d="M 256 220 V 218 H 262 V 220 Z" /></g><g class="point"><path style="opacity: 1; fill: rgb(200, 50, 50); fill-opacity: 1; stroke-width: 0px;" d="M 262 220 V 218 H 269 V 220 Z" /></g><g class="point"><path style="opacity: 1; fill: rgb(200, 50, 50); fill-opacity: 1; stroke-width: 0px;" d="M 269 220 V 219 H 275 V 220 Z" /></g><g class="point"><path style="opacity: 1; fill: rgb(200, 50, 50); fill-opacity: 1; stroke-width: 0px;" d="M 275 220 V 218 H 282 V 220 Z" /></g><g class="point"><path style="opacity: 1; fill: rgb(200, 50, 50); fill-opacity: 1; stroke-width: 0px;" d="M 282 220 V 206 H 288 V 220 Z" /></g><g class="point"><path style="opacity: 1; fill: rgb(200, 50, 50); fill-opacity: 1; stroke-width: 0px;" d="M 288 220 V 218 H 295 V 220 Z" /></g><g class="point"><path style="opacity: 1; fill: rgb(200, 50, 50); fill-opacity: 1; stroke-width: 0px;" d="M 295 220 V 219 H 301 V 220 Z" /></g><g class="point"><path style="opacity: 1; fill: rgb(200, 50, 50); fill-opacity: 1; stroke-width: 0px;" d="M 301 220 V 219 H 307 V 220 Z" /></g><g class="point"><path style="opacity: 1; fill: rgb(200, 50, 50); fill-opacity: 1; stroke-width: 0px;" d="M 307 220 V 219 H 314 V 220 Z" /></g><g class="point"><path style="opacity: 1; fill: rgb(200, 50, 50); fill-opacity: 1; stroke-width: 0px;" d="M 314 220 V 218 H 320 V 220 Z" /></g><g class="point"><path style="opacity: 1; fill: rgb(200, 50, 50); fill-opacity: 1; stroke-width: 0px;" d="M 320 220 V 219 H 327 V 220 Z" /></g><g class="point"><path style="opacity: 1; fill: rgb(200, 50, 50); fill-opacity: 1; stroke-width: 0px;" d="M 327 220 V 219 H 333 V 220 Z" /></g><g class="point"><path style="opacity: 1; fill: rgb(200, 50, 50); fill-opacity: 1; stroke-width: 0px;" d="M 333 220 V 219 H 339 V 220 Z" /></g><g class="point"><path style="opacity: 1; fill: rgb(200, 50, 50); fill-opacity: 1; stroke-width: 0px;" d="M 339 220 V 219 H 346 V 220 Z" /></g><g class="point"><path style="opacity: 1; fill: rgb(200, 50, 50); fill-opacity: 1; stroke-width: 0px;" d="M 346 220 V 219 H 352 V 220 Z" /></g><g class="point"><path style="opacity: 1; fill: rgb(200, 50, 50); fill-opacity: 1; stroke-width: 0px;" d="M 352 220 V 219 H 359 V 220 Z" /></g><g class="point"><path style="opacity: 1; fill: rgb(200, 50, 50); fill-opacity: 1; stroke-width: 0px;" d="M 359 220 V 219 H 365 V 220 Z" /></g><g class="point"><path style="opacity: 1; fill: rgb(200, 50, 50); fill-opacity: 1; stroke-width: 0px;" d="M 365 220 V 219 H 371 V 220 Z" /></g><g class="point"><path style="opacity: 1; fill: rgb(200, 50, 50); fill-opacity: 1; stroke-width: 0px;" d="M 371 220 V 218 H 378 V 220 Z" /></g><g class="point"><path style="opacity: 1; fill: rgb(200, 50, 50); fill-opacity: 1; stroke-width: 0px;" d="M 378 220 V 189 H 384 V 220 Z" /></g><g class="point"><path style="opacity: 1; fill: rgb(200, 50, 50); fill-opacity: 1; stroke-width: 0px;" d="M 384 220 V 219 H 391 V 220 Z" /></g><g class="point"><path style="opacity: 1; fill: rgb(200, 50, 50); fill-opacity: 1; stroke-width: 0px;" d="M 391 220 V 219 H 397 V 220 Z" /></g><g class="point"><path style="opacity: 1; fill: rgb(200, 50, 50); fill-opacity: 1; stroke-width: 0px;" d="M 397 220 V 219 H 403 V 220 Z" /></g><g class="point"><path style="opacity: 1; fill: rgb(200, 50, 50); fill-opacity: 1; stroke-width: 0px;" d="M 403 220 V 219 H 410 V 220 Z" /></g><g class="point"><path style="opacity: 1; fill: rgb(200, 50, 50); fill-opacity: 1; stroke-width: 0px;" d="M 410 220 V 219 H 416 V 220 Z" /></g><g class="point"><path style="opacity: 1; fill: rgb(200, 50, 50); fill-opacity: 1; stroke-width: 0px;" d="M 416 220 V 219 H 423 V 220 Z" /></g><g class="point"><path style="opacity: 1; fill: rgb(200, 50, 50); fill-opacity: 1; stroke-width: 0px;" d="M 423 220 V 219 H 429 V 220 Z" /></g><g class="point"><path style="opacity: 1; fill: rgb(200, 50, 50); fill-opacity: 1; stroke-width: 0px;" d="M 429 220 V 219 H 435 V 220 Z" /></g><g class="point"><path style="opacity: 1; fill: rgb(200, 50, 50); fill-opacity: 1; stroke-width: 0px;" d="M 435 220 V 219 H 442 V 220 Z" /></g><g class="point"><path style="opacity: 1; fill: rgb(200, 50, 50); fill-opacity: 1; stroke-width: 0px;" d="M 442 220 V 219 H 448 V 220 Z" /></g><g class="point"><path style="opacity: 1; fill: rgb(200, 50, 50); fill-opacity: 1; stroke-width: 0px;" d="M 448 220 V 219 H 455 V 220 Z" /></g><g class="point"><path style="opacity: 1; fill: rgb(200, 50, 50); fill-opacity: 1; stroke-width: 0px;" d="M 455 220 V 219 H 461 V 220 Z" /></g><g class="point"><path style="opacity: 1; fill: rgb(200, 50, 50); fill-opacity: 1; stroke-width: 0px;" d="M 461 220 V 219 H 467 V 220 Z" /></g><g class="point"><path style="opacity: 1; fill: rgb(200, 50, 50); fill-opacity: 1; stroke-width: 0px;" d="M 467 220 V 219 H 474 V 220 Z" /></g><g class="point"><path style="opacity: 1; fill: rgb(200, 50, 50); fill-opacity: 1; stroke-width: 0px;" d="M 474 220 V 219 H 480 V 220 Z" /></g><g class="point"><path style="opacity: 1; fill: rgb(200, 50, 50); fill-opacity: 1; stroke-width: 0px;" d="M 480 220 V 219 H 487 V 220 Z" /></g><g class="point"><path style="opacity: 1; fill: rgb(200, 50, 50); fill-opacity: 1; stroke-width: 0px;" d="M 487 220 V 219 H 493 V 220 Z" /></g><g class="point"><path style="opacity: 1; fill: rgb(200, 50, 50); fill-opacity: 1; stroke-width: 0px;" d="M 493 220 V 219 H 499 V 220 Z" /></g><g class="point"><path style="opacity: 1; fill: rgb(200, 50, 50); fill-opacity: 1; stroke-width: 0px;" d="M 499 220 V 219 H 506 V 220 Z" /></g><g class="point"><path style="opacity: 1; fill: rgb(200, 50, 50); fill-opacity: 1; stroke-width: 0px;" d="M 506 220 V 219 H 512 V 220 Z" /></g><g class="point"><path style="opacity: 1; fill: rgb(200, 50, 50); fill-opacity: 1; stroke-width: 0px;" d="M 512 220 V 219 H 519 V 220 Z" /></g><g class="point"><path style="opacity: 1; fill: rgb(200, 50, 50); fill-opacity: 1; stroke-width: 0px;" d="M 519 220 V 219 H 525 V 220 Z" /></g><g class="point"><path style="opacity: 1; fill: rgb(200, 50, 50); fill-opacity: 1; stroke-width: 0px;" d="M 525 220 V 219 H 531 V 220 Z" /></g><g class="point"><path style="opacity: 1; fill: rgb(200, 50, 50); fill-opacity: 1; stroke-width: 0px;" d="M 531 220 V 219 H 538 V 220 Z" /></g><g class="point"><path style="opacity: 1; fill: rgb(200, 50, 50); fill-opacity: 1; stroke-width: 0px;" d="M 538 220 V 219 H 544 V 220 Z" /></g><g class="point"><path style="opacity: 1; fill: rgb(200, 50, 50); fill-opacity: 1; stroke-width: 0px;" d="M 544 220 V 219 H 551 V 220 Z" /></g><g class="point"><path style="opacity: 1; fill: rgb(200, 50, 50); fill-opacity: 1; stroke-width: 0px;" d="M 551 220 V 219 H 557 V 220 Z" /></g><g class="point"><path style="opacity: 1; fill: rgb(200, 50, 50); fill-opacity: 1; stroke-width: 0px;" d="M 557 220 V 219 H 563 V 220 Z" /></g><g class="point"><path style="opacity: 1; fill: rgb(200, 50, 50); fill-opacity: 1; stroke-width: 0px;" d="M 563 220 V 219 H 570 V 220 Z" /></g><g class="point"><path style="opacity: 1; fill: rgb(200, 50, 50); fill-opacity: 1; stroke-width: 0px;" d="M 570 220 V 218 H 576 V 220 Z" /></g><g class="point"><path style="opacity: 1; fill: rgb(200, 50, 50); fill-opacity: 1; stroke-width: 0px;" d="M 576 220 V 219 H 583 V 220 Z" /></g><g class="point"><path style="opacity: 1; fill: rgb(200, 50, 50); fill-opacity: 1; stroke-width: 0px;" d="M 583 220 V 219 H 589 V 220 Z" /></g></g></g><g class="trace bars" style="opacity: 1;" shape-rendering="crispEdges"><g class="points"><g class="point"><path style="opacity: 1; fill: rgb(115, 50, 200); fill-opacity: 1; stroke-width: 0px;" d="M 0 220 V 219 H 6 V 220 Z" /></g><g class="point"><path style="opacity: 1; fill: rgb(115, 50, 200); fill-opacity: 1; stroke-width: 0px;" d="M 6 220 V 219 H 13 V 220 Z" /></g><g class="point"><path style="opacity: 1; fill: rgb(115, 50, 200); fill-opacity: 1; stroke-width: 0px;" d="M 13 220 V 219 H 19 V 220 Z" /></g><g class="point"><path style="opacity: 1; fill: rgb(115, 50, 200); fill-opacity: 1; stroke-width: 0px;" d="M 19 220 V 219 H 26 V 220 Z" /></g><g class="point"><path style="opacity: 1; fill: rgb(115, 50, 200); fill-opacity: 1; stroke-width: 0px;" d="M 26 220 V 219 H 32 V 220 Z" /></g><g class="point"><path style="opacity: 1; fill: rgb(115, 50, 200); fill-opacity: 1; stroke-width: 0px;" d="M 32 220 V 219 H 38 V 220 Z" /></g><g class="point"><path style="opacity: 1; fill: rgb(115, 50, 200); fill-opacity: 1; stroke-width: 0px;" d="M 38 219 V 217 H 45 V 219 Z" /></g><g class="point"><path style="opacity: 1; fill: rgb(115, 50, 200); fill-opacity: 1; stroke-width: 0px;" d="M 45 220 V 219 H 51 V 220 Z" /></g><g class="point"><path style="opacity: 1; fill: rgb(115, 50, 200); fill-opacity: 1; stroke-width: 0px;" d="M 51 220 V 219 H 58 V 220 Z" /></g><g class="point"><path style="opacity: 1; fill: rgb(115, 50, 200); fill-opacity: 1; stroke-width: 0px;" d="M 58 219 V 217 H 64 V 219 Z" /></g><g class="point"><path style="opacity: 1; fill: rgb(115, 50, 200); fill-opacity: 1; stroke-width: 0px;" d="M 64 220 V 219 H 70 V 220 Z" /></g><g class="point"><path style="opacity: 1; fill: rgb(115, 50, 200); fill-opacity: 1; stroke-width: 0px;" d="M 70 220 V 218 H 77 V 220 Z" /></g><g class="point"><path style="opacity: 1; fill: rgb(115, 50, 200); fill-opacity: 1; stroke-width: 0px;" d="M 77 220 V 218 H 83 V 220 Z" /></g><g class="point"><path style="opacity: 1; fill: rgb(115, 50, 200); fill-opacity: 1; stroke-width: 0px;" d="M 83 218 V 215 H 90 V 218 Z" /></g><g class="point"><path style="opacity: 1; fill: rgb(115, 50, 200); fill-opacity: 1; stroke-width: 0px;" d="M 90 216 V 213 H 96 V 216 Z" /></g><g class="point"><path style="opacity: 1; fill: rgb(115, 50, 200); fill-opacity: 1; stroke-width: 0px;" d="M 96 220 V 218 H 102 V 220 Z" /></g><g class="point"><path style="opacity: 1; fill: rgb(115, 50, 200); fill-opacity: 1; stroke-width: 0px;" d="M 102 220 V 218 H 109 V 220 Z" /></g><g class="point"><path style="opacity: 1; fill: rgb(115, 50, 200); fill-opacity: 1; stroke-width: 0px;" d="M 109 220 V 218 H 115 V 220 Z" /></g><g class="point"><path style="opacity: 1; fill: rgb(115, 50, 200); fill-opacity: 1; stroke-width: 0px;" d="M 115 220 V 218 H 122 V 220 Z" /></g><g class="point"><path style="opacity: 1; fill: rgb(115, 50, 200); fill-opacity: 1; stroke-width: 0px;" d="M 122 215 V 211 H 128 V 215 Z" /></g><g class="point"><path style="opacity: 1; fill: rgb(115, 50, 200); fill-opacity: 1; stroke-width: 0px;" d="M 128 216 V 211 H 134 V 216 Z" /></g><g class="point"><path style="opacity: 1; fill: rgb(115, 50, 200); fill-opacity: 1; stroke-width: 0px;" d="M 134 219 V 217 H 141 V 219 Z" /></g><g class="point"><path style="opacity: 1; fill: rgb(115, 50, 200); fill-opacity: 1; stroke-width: 0px;" d="M 141 219 V 217 H 147 V 219 Z" /></g><g class="point"><path style="opacity: 1; fill: rgb(115, 50, 200); fill-opacity: 1; stroke-width: 0px;" d="M 147 219 V 217 H 154 V 219 Z" /></g><g class="point"><path style="opacity: 1; fill: rgb(115, 50, 200); fill-opacity: 1; stroke-width: 0px;" d="M 154 216 V 212 H 160 V 216 Z" /></g><g class="point"><path style="opacity: 1; fill: rgb(115, 50, 200); fill-opacity: 1; stroke-width: 0px;" d="M 160 219 V 217 H 166 V 219 Z" /></g><g class="point"><path style="opacity: 1; fill: rgb(115, 50, 200); fill-opacity: 1; stroke-width: 0px;" d="M 166 219 V 216 H 173 V 219 Z" /></g><g class="point"><path style="opacity: 1; fill: rgb(115, 50, 200); fill-opacity: 1; stroke-width: 0px;" d="M 173 217 V 213 H 179 V 217 Z" /></g><g class="point"><path style="opacity: 1; fill: rgb(115, 50, 200); fill-opacity: 1; stroke-width: 0px;" d="M 179 216 V 212 H 186 V 216 Z" /></g><g class="point"><path style="opacity: 1; fill: rgb(115, 50, 200); fill-opacity: 1; stroke-width: 0px;" d="M 186 86 V 11 H 192 V 86 Z" /></g><g class="point"><path style="opacity: 1; fill: rgb(115, 50, 200); fill-opacity: 1; stroke-width: 0px;" d="M 192 213 V 203 H 198 V 213 Z" /></g><g class="point"><path style="opacity: 1; fill: rgb(115, 50, 200); fill-opacity: 1; stroke-width: 0px;" d="M 198 216 V 211 H 205 V 216 Z" /></g><g class="point"><path style="opacity: 1; fill: rgb(115, 50, 200); fill-opacity: 1; stroke-width: 0px;" d="M 205 217 V 213 H 211 V 217 Z" /></g><g class="point"><path style="opacity: 1; fill: rgb(115, 50, 200); fill-opacity: 1; stroke-width: 0px;" d="M 211 218 V 215 H 218 V 218 Z" /></g><g class="point"><path style="opacity: 1; fill: rgb(115, 50, 200); fill-opacity: 1; stroke-width: 0px;" d="M 218 213 V 208 H 224 V 213 Z" /></g><g class="point"><path style="opacity: 1; fill: rgb(115, 50, 200); fill-opacity: 1; stroke-width: 0px;" d="M 224 218 V 216 H 230 V 218 Z" /></g><g class="point"><path style="opacity: 1; fill: rgb(115, 50, 200); fill-opacity: 1; stroke-width: 0px;" d="M 230 219 V 217 H 237 V 219 Z" /></g><g class="point"><path style="opacity: 1; fill: rgb(115, 50, 200); fill-opacity: 1; stroke-width: 0px;" d="M 237 219 V 217 H 243 V 219 Z" /></g><g class="point"><path style="opacity: 1; fill: rgb(115, 50, 200); fill-opacity: 1; stroke-width: 0px;" d="M 243 219 V 217 H 250 V 219 Z" /></g><g class="point"><path style="opacity: 1; fill: rgb(115, 50, 200); fill-opacity: 1; stroke-width: 0px;" d="M 250 213 V 208 H 256 V 213 Z" /></g><g class="point"><path style="opacity: 1; fill: rgb(115, 50, 200); fill-opacity: 1; stroke-width: 0px;" d="M 256 219 V 217 H 262 V 219 Z" /></g><g class="point"><path style="opacity: 1; fill: rgb(115, 50, 200); fill-opacity: 1; stroke-width: 0px;" d="M 262 219 V 217 H 269 V 219 Z" /></g><g class="point"><path style="opacity: 1; fill: rgb(115, 50, 200); fill-opacity: 1; stroke-width: 0px;" d="M 269 220 V 218 H 275 V 220 Z" /></g><g class="point"><path style="opacity: 1; fill: rgb(115, 50, 200); fill-opacity: 1; stroke-width: 0px;" d="M 275 219 V 218 H 282 V 219 Z" /></g><g class="point"><path style="opacity: 1; fill: rgb(115, 50, 200); fill-opacity: 1; stroke-width: 0px;" d="M 282 206 V 199 H 288 V 206 Z" /></g><g class="point"><path style="opacity: 1; fill: rgb(115, 50, 200); fill-opacity: 1; stroke-width: 0px;" d="M 288 219 V 217 H 295 V 219 Z" /></g><g class="point"><path style="opacity: 1; fill: rgb(115, 50, 200); fill-opacity: 1; stroke-width: 0px;" d="M 295 220 V 218 H 301 V 220 Z" /></g><g class="point"><path style="opacity: 1; fill: rgb(115, 50, 200); fill-opacity: 1; stroke-width: 0px;" d="M 301 220 V 218 H 307 V 220 Z" /></g><g class="point"><path style="opacity: 1; fill: rgb(115, 50, 200); fill-opacity: 1; stroke-width: 0px;" d="M 307 220 V 218 H 314 V 220 Z" /></g><g class="point"><path style="opacity: 1; fill: rgb(115, 50, 200); fill-opacity: 1; stroke-width: 0px;" d="M 314 218 V 216 H 320 V 218 Z" /></g><g class="point"><path style="opacity: 1; fill: rgb(115, 50, 200); fill-opacity: 1; stroke-width: 0px;" d="M 320 220 V 218 H 327 V 220 Z" /></g><g class="point"><path style="opacity: 1; fill: rgb(115, 50, 200); fill-opacity: 1; stroke-width: 0px;" d="M 327 220 V 219 H 333 V 220 Z" /></g><g class="point"><path style="opacity: 1; fill: rgb(115, 50, 200); fill-opacity: 1; stroke-width: 0px;" d="M 333 220 V 219 H 339 V 220 Z" /></g><g class="point"><path style="opacity: 1; fill: rgb(115, 50, 200); fill-opacity: 1; stroke-width: 0px;" d="M 339 220 V 219 H 346 V 220 Z" /></g><g class="point"><path style="opacity: 1; fill: rgb(115, 50, 200); fill-opacity: 1; stroke-width: 0px;" d="M 346 220 V 218 H 352 V 220 Z" /></g><g class="point"><path style="opacity: 1; fill: rgb(115, 50, 200); fill-opacity: 1; stroke-width: 0px;" d="M 352 220 V 219 H 359 V 220 Z" /></g><g class="point"><path style="opacity: 1; fill: rgb(115, 50, 200); fill-opacity: 1; stroke-width: 0px;" d="M 359 220 V 219 H 365 V 220 Z" /></g><g class="point"><path style="opacity: 1; fill: rgb(115, 50, 200); fill-opacity: 1; stroke-width: 0px;" d="M 365 220 V 218 H 371 V 220 Z" /></g><g class="point"><path style="opacity: 1; fill: rgb(115, 50, 200); fill-opacity: 1; stroke-width: 0px;" d="M 371 219 V 217 H 378 V 219 Z" /></g><g class="point"><path style="opacity: 1; fill: rgb(115, 50, 200); fill-opacity: 1; stroke-width: 0px;" d="M 378 189 V 181 H 384 V 189 Z" /></g><g class="point"><path style="opacity: 1; fill: rgb(115, 50, 200); fill-opacity: 1; stroke-width: 0px;" d="M 384 220 V 219 H 391 V 220 Z" /></g><g class="point"><path style="opacity: 1; fill: rgb(115, 50, 200); fill-opacity: 1; stroke-width: 0px;" d="M 391 220 V 219 H 397 V 220 Z" /></g><g class="point"><path style="opacity: 1; fill: rgb(115, 50, 200); fill-opacity: 1; stroke-width: 0px;" d="M 397 220 V 219 H 403 V 220 Z" /></g><g class="point"><path style="opacity: 1; fill: rgb(115, 50, 200); fill-opacity: 1; stroke-width: 0px;" d="M 403 220 V 219 H 410 V 220 Z" /></g><g class="point"><path style="opacity: 1; fill: rgb(115, 50, 200); fill-opacity: 1; stroke-width: 0px;" d="M 410 220 V 219 H 416 V 220 Z" /></g><g class="point"><path style="opacity: 1; fill: rgb(115, 50, 200); fill-opacity: 1; stroke-width: 0px;" d="M 416 220 V 219 H 423 V 220 Z" /></g><g class="point"><path style="opacity: 1; fill: rgb(115, 50, 200); fill-opacity: 1; stroke-width: 0px;" d="M 423 220 V 219 H 429 V 220 Z" /></g><g class="point"><path style="opacity: 1; fill: rgb(115, 50, 200); fill-opacity: 1; stroke-width: 0px;" d="M 429 220 V 219 H 435 V 220 Z" /></g><g class="point"><path style="opacity: 1; fill: rgb(115, 50, 200); fill-opacity: 1; stroke-width: 0px;" d="M 435 220 V 219 H 442 V 220 Z" /></g><g class="point"><path style="opacity: 1; fill: rgb(115, 50, 200); fill-opacity: 1; stroke-width: 0px;" d="M 442 220 V 219 H 448 V 220 Z" /></g><g class="point"><path style="opacity: 1; fill: rgb(115, 50, 200); fill-opacity: 1; stroke-width: 0px;" d="M 448 220 V 219 H 455 V 220 Z" /></g><g class="point"><path style="opacity: 1; fill: rgb(115, 50, 200); fill-opacity: 1; stroke-width: 0px;" d="M 455 220 V 219 H 461 V 220 Z" /></g><g class="point"><path style="opacity: 1; fill: rgb(115, 50, 200); fill-opacity: 1; stroke-width: 0px;" d="M 461 220 V 219 H 467 V 220 Z" /></g><g class="point"><path style="opacity: 1; fill: rgb(115, 50, 200); fill-opacity: 1; stroke-width: 0px;" d="M 467 220 V 219 H 474 V 220 Z" /></g><g class="point"><path style="opacity: 1; fill: rgb(115, 50, 200); fill-opacity: 1; stroke-width: 0px;" d="M 474 220 V 219 H 480 V 220 Z" /></g><g class="point"><path style="opacity: 1; fill: rgb(115, 50, 200); fill-opacity: 1; stroke-width: 0px;" d="M 480 220 V 219 H 487 V 220 Z" /></g><g class="point"><path style="opacity: 1; fill: rgb(115, 50, 200); fill-opacity: 1; stroke-width: 0px;" d="M 487 220 V 219 H 493 V 220 Z" /></g><g class="point"><path style="opacity: 1; fill: rgb(115, 50, 200); fill-opacity: 1; stroke-width: 0px;" d="M 493 220 V 219 H 499 V 220 Z" /></g><g class="point"><path style="opacity: 1; fill: rgb(115, 50, 200); fill-opacity: 1; stroke-width: 0px;" d="M 499 220 V 219 H 506 V 220 Z" /></g><g class="point"><path style="opacity: 1; fill: rgb(115, 50, 200); fill-opacity: 1; stroke-width: 0px;" d="M 506 220 V 219 H 512 V 220 Z" /></g><g class="point"><path style="opacity: 1; fill: rgb(115, 50, 200); fill-opacity: 1; stroke-width: 0px;" d="M 512 220 V 219 H 519 V 220 Z" /></g><g class="point"><path style="opacity: 1; fill: rgb(115, 50, 200); fill-opacity: 1; stroke-width: 0px;" d="M 519 220 V 219 H 525 V 220 Z" /></g><g class="point"><path style="opacity: 1; fill: rgb(115, 50, 200); fill-opacity: 1; stroke-width: 0px;" d="M 525 220 V 219 H 531 V 220 Z" /></g><g class="point"><path style="opacity: 1; fill: rgb(115, 50, 200); fill-opacity: 1; stroke-width: 0px;" d="M 531 220 V 219 H 538 V 220 Z" /></g><g class="point"><path style="opacity: 1; fill: rgb(115, 50, 200); fill-opacity: 1; stroke-width: 0px;" d="M 538 220 V 219 H 544 V 220 Z" /></g><g class="point"><path style="opacity: 1; fill: rgb(115, 50, 200); fill-opacity: 1; stroke-width: 0px;" d="M 544 220 V 219 H 551 V 220 Z" /></g><g class="point"><path style="opacity: 1; fill: rgb(115, 50, 200); fill-opacity: 1; stroke-width: 0px;" d="M 551 220 V 219 H 557 V 220 Z" /></g><g class="point"><path style="opacity: 1; fill: rgb(115, 50, 200); fill-opacity: 1; stroke-width: 0px;" d="M 557 220 V 219 H 563 V 220 Z" /></g><g class="point"><path style="opacity: 1; fill: rgb(115, 50, 200); fill-opacity: 1; stroke-width: 0px;" d="M 563 220 V 219 H 570 V 220 Z" /></g><g class="point"><path style="opacity: 1; fill: rgb(115, 50, 200); fill-opacity: 1; stroke-width: 0px;" d="M 570 219 V 218 H 576 V 219 Z" /></g><g class="point"><path style="opacity: 1; fill: rgb(115, 50, 200); fill-opacity: 1; stroke-width: 0px;" d="M 576 220 V 219 H 583 V 220 Z" /></g><g class="point"><path style="opacity: 1; fill: rgb(115, 50, 200); fill-opacity: 1; stroke-width: 0px;" d="M 583 220 V 219 H 589 V 220 Z" /></g></g></g></g></g><g class="overplot" /><path class="xlines-above crisp" style="fill: none;" d="M 0 0" /><path class="ylines-above crisp" style="fill: none;" d="M 0 0" /><g class="overlines-above" /><g class="xaxislayer-above"><g class="xtick"><text style="font-family: &quot;Open Sans&quot;,verdana,arial,sans-serif; font-size: 12px; white-space: pre; fill: rgb(68, 68, 68); fill-opacity: 1;" text-anchor="middle" transform="translate(198.44)" x="0" y="333" data-unformatted="20" data-math="N">20</text></g><g class="xtick"><text style="font-family: &quot;Open Sans&quot;,verdana,arial,sans-serif; font-size: 12px; white-space: pre; fill: rgb(68, 68, 68); fill-opacity: 1;" text-anchor="middle" transform="translate(326.48)" x="0" y="333" data-unformatted="40" data-math="N">40</text></g><g class="xtick"><text style="font-family: &quot;Open Sans&quot;,verdana,arial,sans-serif; font-size: 12px; white-space: pre; fill: rgb(68, 68, 68); fill-opacity: 1;" text-anchor="middle" transform="translate(454.53)" x="0" y="333" data-unformatted="60" data-math="N">60</text></g><g class="xtick"><text style="font-family: &quot;Open Sans&quot;,verdana,arial,sans-serif; font-size: 12px; white-space: pre; fill: rgb(68, 68, 68); fill-opacity: 1;" text-anchor="middle" transform="translate(582.57)" x="0" y="333" data-unformatted="80" data-math="N">80</text></g></g><g class="yaxislayer-above"><g class="ytick"><text style="font-family: &quot;Open Sans&quot;,verdana,arial,sans-serif; font-size: 12px; white-space: pre; fill: rgb(68, 68, 68); fill-opacity: 1;" text-anchor="end" transform="translate(0 320)" x="79" y="4.2" data-unformatted="0" data-math="N">0</text></g><g class="ytick"><text style="font-family: &quot;Open Sans&quot;,verdana,arial,sans-serif; font-size: 12px; white-space: pre; fill: rgb(68, 68, 68); fill-opacity: 1;" text-anchor="end" transform="translate(0 249.55)" x="79" y="4.2" data-unformatted="50k" data-math="N">50k</text></g><g class="ytick"><text style="font-family: &quot;Open Sans&quot;,verdana,arial,sans-serif; font-size: 12px; white-space: pre; fill: rgb(68, 68, 68); fill-opacity: 1;" text-anchor="end" transform="translate(0 179.09)" x="79" y="4.2" data-unformatted="100k" data-math="N">100k</text></g><g class="ytick"><text style="font-family: &quot;Open Sans&quot;,verdana,arial,sans-serif; font-size: 12px; white-space: pre; fill: rgb(68, 68, 68); fill-opacity: 1;" text-anchor="end" transform="translate(0 108.64)" x="79" y="4.2" data-unformatted="150k" data-math="N">150k</text></g></g><g class="overaxes-above" /></g></g><g class="polarlayer" /><g class="ternarylayer" /><g class="geolayer" /><g class="pielayer" /><g class="glimages" /></svg>